<svg width="501" height="619" viewBox="0 0 501 619" fill="none" xmlns="http://www.w3.org/2000/svg">
<path opacity="0.07" d="M500.931 311.336C492.213 306.245 485.897 306.107 481.984 310.923C478.071 315.67 476.149 323.72 476.149 335.071V396.232C476.149 407.859 475.051 417.491 472.923 425.128C470.794 433.039 467.156 438.681 462.145 441.983C457.271 445.354 450.68 446.248 442.305 444.666C434.136 443.153 423.907 438.887 411.688 431.801L405.853 428.43V380.271L413.129 384.468C421.848 389.559 427.683 390.178 430.635 386.463C433.724 382.886 435.303 375.387 435.303 364.035V310.166C435.303 296.132 436.676 285.055 439.422 276.868C442.168 268.681 447.591 263.521 455.76 261.182C447.591 249.418 442.168 237.929 439.422 226.646C436.676 215.363 435.372 202.704 435.372 188.669V134.801C435.372 123.449 433.793 114.23 430.704 107.006C427.82 99.92 421.985 93.8658 413.198 88.7748L405.921 84.5781V36.4196L411.756 39.7907C423.976 46.8769 434.205 54.3759 442.374 62.3564C450.749 70.4058 457.339 79.0055 462.213 88.018C467.293 97.1681 470.863 106.937 472.991 117.326C475.119 127.439 476.218 138.378 476.218 149.936V211.097C476.218 222.449 478.14 232.769 482.053 241.988C485.966 251.275 492.282 258.43 501 263.453L500.931 311.336Z" fill="url(#paint0_linear_312_45)"/>
<path opacity="0.07" d="M279.539 134.181C288.257 139.272 294.573 139.41 298.486 134.594C302.399 129.847 304.321 121.798 304.321 110.446V49.2848C304.321 37.658 305.419 28.0263 307.547 20.3897C309.675 12.478 313.176 6.76774 318.051 3.39665C323.131 0.0943512 329.721 -0.800021 337.89 0.713532C346.265 2.29588 356.563 6.63015 368.782 13.7163L374.617 17.0874V65.2459L367.341 61.0493C358.622 55.9582 352.65 55.2702 349.56 58.8477C346.677 62.5628 345.167 70.0618 345.167 81.4134V135.282C345.167 149.317 343.794 160.393 341.048 168.58C338.302 176.698 332.879 181.927 324.709 184.266C332.879 196.031 338.302 207.52 341.048 218.803C343.794 230.086 345.098 242.744 345.098 256.779V310.648C345.098 322 346.54 331.218 349.492 338.305C352.581 345.528 358.553 351.651 367.272 356.674L374.549 360.87V409.029L368.713 405.658C356.494 398.572 346.197 391.004 337.821 382.954C329.652 374.974 323.062 366.443 317.982 357.293C313.108 348.28 309.607 338.58 307.479 328.123C305.351 318.009 304.252 307.07 304.252 295.512V234.351C304.252 222.999 302.33 212.68 298.417 203.461C294.504 194.173 288.188 187.018 279.47 181.996L279.539 134.181Z" fill="url(#paint1_linear_312_45)"/>
<path opacity="0.4" d="M473.472 331.975C464.753 326.884 458.438 326.747 454.525 331.562C450.612 336.309 448.69 344.359 448.69 355.711V416.872C448.69 428.499 447.591 438.13 445.463 445.767C443.335 453.679 439.697 459.32 434.685 462.622C429.811 465.993 423.221 466.888 414.846 465.305C406.676 463.792 396.448 459.526 384.228 452.44L378.393 449.069V400.911L385.67 405.107C394.388 410.198 400.223 410.818 403.175 407.103C406.264 403.525 407.843 396.026 407.843 384.674V330.806C407.843 316.771 409.216 305.694 411.962 297.508C414.708 289.321 420.132 284.161 428.301 281.822C420.132 270.057 414.708 258.568 411.962 247.285C409.216 236.002 407.912 223.343 407.912 209.309V155.44C407.912 144.088 406.333 134.869 403.244 127.646C400.361 120.559 394.526 114.505 385.738 109.414L378.462 105.217V57.059L384.297 60.4301C396.516 67.5163 406.745 75.0152 414.914 82.9958C423.289 91.0451 429.88 99.6448 434.754 108.657C439.834 117.807 443.404 127.577 445.532 137.965C447.66 148.079 448.758 159.017 448.758 170.575V231.737C448.758 243.088 450.68 253.408 454.593 262.627C458.506 271.915 464.822 279.07 473.54 284.092L473.472 331.975Z" fill="url(#paint2_linear_312_45)"/>
<path opacity="0.4" d="M252.079 154.821C260.797 159.912 267.113 160.049 271.026 155.234C274.939 150.486 276.861 142.437 276.861 131.085V69.9242C276.861 58.2973 277.96 48.6656 280.088 41.0291C282.216 33.1173 285.717 27.4071 290.591 24.036C295.671 20.7337 302.261 19.8393 310.431 21.3529C318.806 22.9352 329.103 27.2695 341.323 34.3557L347.158 37.7268V85.8853L339.881 81.6886C331.163 76.5976 325.19 75.9096 322.101 79.4871C319.218 83.2022 317.707 90.7011 317.707 102.053V155.922C317.707 169.956 316.334 181.033 313.588 189.22C310.842 197.338 305.419 202.566 297.25 204.906C305.419 216.67 310.842 228.159 313.588 239.442C316.334 250.725 317.639 263.384 317.639 277.419V331.287C317.639 342.639 319.08 351.858 322.032 358.944C325.121 366.168 331.094 372.291 339.812 377.313L347.089 381.51V429.668L341.254 426.297C329.034 419.211 318.737 411.643 310.362 403.594C302.193 395.613 295.602 387.082 290.522 377.932C285.648 368.92 282.147 359.219 280.019 348.762C277.891 338.649 276.793 327.71 276.793 316.152V254.99C276.793 243.639 274.87 233.319 270.957 224.1C267.044 214.812 260.729 207.658 252.01 202.635L252.079 154.821Z" fill="url(#paint3_linear_312_45)"/>
<path opacity="0.15" d="M99.6783 8.41888L216.999 76.3224L216.931 357.912L99.6097 290.009L99.6783 8.41888Z" fill="url(#paint4_linear_312_45)"/>
<path d="M77.642 51.6927L170.936 105.699V131.636L77.642 77.6296V51.6927Z" fill="#F7DF1E"/>
<path opacity="0.15" d="M114.163 164.246L203.819 216.12V256.435L114.163 204.562V164.246Z" fill="white"/>
<path opacity="0.15" d="M114.095 115.468L203.887 167.411V176.767L114.095 124.894V115.468Z" fill="white"/>
<path opacity="0.15" d="M114.095 133.769L191.737 178.694V188.05L114.095 143.125V133.769Z" fill="white"/>
<path opacity="0.2" d="M99.6784 8.41888L216.999 76.3224V114.092L99.6784 46.1889V8.41888Z" fill="url(#paint5_linear_312_45)"/>
<path opacity="0.2" d="M128.991 44.469C128.991 50.1792 125.628 52.8623 121.509 50.5232C117.39 48.1153 114.095 41.5795 114.095 35.8692C114.095 30.159 117.458 27.4759 121.577 29.815C125.628 32.223 128.991 38.7588 128.991 44.469Z" fill="white"/>
<path opacity="0.15" d="M243.841 269.507L361.162 337.41L361.093 619L243.772 551.096L243.841 269.507Z" fill="url(#paint6_linear_312_45)"/>
<path d="M288.532 351.445L381.825 405.383V431.251L288.463 377.313L288.532 351.445Z" fill="#F2994A"/>
<path opacity="0.15" d="M258.326 378.207L348.05 430.15V470.397L258.326 418.454V378.207Z" fill="white"/>
<path opacity="0.15" d="M258.189 435.722L347.982 487.665V497.021L258.189 445.148V435.722Z" fill="white"/>
<path opacity="0.15" d="M258.189 452.647L335.831 497.572V506.928L258.189 462.003V452.647Z" fill="white"/>
<path opacity="0.2" d="M243.841 269.507L361.162 337.41V375.18L243.841 307.277V269.507Z" fill="url(#paint7_linear_312_45)"/>
<path opacity="0.2" d="M273.154 305.626C273.154 311.336 269.79 314.019 265.671 311.68C261.553 309.272 258.257 302.736 258.257 297.026C258.257 291.316 261.621 288.633 265.74 290.972C269.79 293.311 273.154 299.915 273.154 305.626Z" fill="white"/>
<path opacity="0.3" d="M223.521 308.515L19.2904 190.389L19.3591 297.095L205.604 404.832L223.658 431.595L223.521 308.515Z" fill="url(#paint8_linear_312_45)"/>
<path opacity="0.15" d="M171.005 304.112L126.246 278.244V287.601L171.005 313.469V304.112Z" fill="white"/>
<path opacity="0.15" d="M171.005 322.894L60.2052 258.774V268.131L171.073 332.25L171.005 322.894Z" fill="white"/>
<path opacity="0.15" d="M171.073 341.676L37.2766 264.278V273.635L171.073 351.032V341.676Z" fill="white"/>
<path d="M182.057 320.28C182.057 329.086 187.274 339.199 193.659 342.914C200.043 346.629 205.26 342.501 205.26 333.695C205.26 324.889 200.043 314.776 193.659 311.061C187.206 307.346 182.057 311.473 182.057 320.28Z" fill="#F2994A"/>
<path opacity="0.15" d="M39.4732 115.468L12.4255 99.7825V90.6324L39.4732 106.318C41.67 107.625 44.8965 110.171 47.6424 114.161C50.5943 118.427 52.7224 123.793 52.7224 129.641C52.7224 136.108 51.0749 139.754 47.9857 140.855C45.0338 141.818 41.6013 140.167 39.4732 138.928L28.3521 132.461L28.2834 132.393C27.3223 131.842 25.8121 131.292 24.645 131.636C23.6839 131.911 22.5169 132.943 22.5169 136.521C22.5169 140.098 23.6153 142.3 24.5764 143.607C25.7434 145.258 27.2537 146.427 28.2148 146.909L28.3521 146.978L62.4019 166.654V175.804L28.558 156.197C26.224 154.958 22.8602 152.413 19.9769 148.354C16.8191 143.882 14.6223 138.24 14.6223 131.911C14.6223 125.65 16.8191 122.417 19.9083 121.523C22.7915 120.697 26.1553 121.935 28.4894 123.311L39.5418 129.71C41.1208 130.604 42.3565 131.017 43.1116 130.742C43.7294 130.535 44.8278 129.641 44.8278 125.031C44.8278 122.004 43.8667 120.078 42.9056 118.702C41.8073 117.188 40.3656 115.95 39.4732 115.468Z" fill="white"/>
<path d="M20.4574 100.746C20.4574 108.589 15.8579 112.235 10.2287 109.001C4.59948 105.768 0 96.7554 0 88.9124C0 81.0694 4.59948 77.4232 10.2287 80.6567C15.8579 83.959 20.4574 92.9715 20.4574 100.746Z" fill="#F7DF1E"/>
<path d="M74.69 176.423C74.69 184.266 70.0905 187.913 64.4613 184.679C58.8321 181.446 54.2327 172.433 54.2327 164.59C54.2327 156.747 58.8321 153.101 64.4613 156.334C70.0905 159.637 74.69 168.649 74.69 176.423Z" fill="#F7DF1E"/>
<path opacity="0.2" d="M147.664 415.633C151.783 418.041 155.078 423.752 155.078 428.568V449.551L168.945 457.531C173.064 459.939 176.359 465.65 176.359 470.465C176.359 475.212 172.995 477.139 168.945 474.8L155.078 466.819V487.802C155.078 492.55 151.714 494.476 147.664 492.137C143.545 489.729 140.25 484.019 140.25 479.203V458.219L126.383 450.239C122.264 447.831 118.969 442.121 118.969 437.305C118.969 432.558 122.333 430.631 126.383 432.971L140.25 440.951V419.968C140.25 415.152 143.545 413.226 147.664 415.633Z" fill="url(#paint9_linear_312_45)"/>
<defs>
<linearGradient id="paint0_linear_312_45" x1="544.121" y1="50.3295" x2="374.261" y2="344.086" gradientUnits="userSpaceOnUse">
<stop stop-color="white"/>
<stop offset="1" stop-color="white" stop-opacity="0"/>
</linearGradient>
<linearGradient id="paint1_linear_312_45" x1="462.712" y1="1.98409" x2="292.852" y2="295.74" gradientUnits="userSpaceOnUse">
<stop stop-color="white"/>
<stop offset="1" stop-color="white" stop-opacity="0"/>
</linearGradient>
<linearGradient id="paint2_linear_312_45" x1="516.661" y1="70.9689" x2="346.801" y2="364.725" gradientUnits="userSpaceOnUse">
<stop stop-color="white"/>
<stop offset="1" stop-color="white" stop-opacity="0"/>
</linearGradient>
<linearGradient id="paint3_linear_312_45" x1="435.252" y1="22.6233" x2="265.392" y2="316.38" gradientUnits="userSpaceOnUse">
<stop stop-color="white"/>
<stop offset="1" stop-color="white" stop-opacity="0"/>
</linearGradient>
<linearGradient id="paint4_linear_312_45" x1="219.128" y1="77.5286" x2="106.681" y2="271.922" gradientUnits="userSpaceOnUse">
<stop stop-color="white"/>
<stop offset="1" stop-color="white" stop-opacity="0"/>
</linearGradient>
<linearGradient id="paint5_linear_312_45" x1="139.932" y1="8.99383" x2="175.776" y2="110.406" gradientUnits="userSpaceOnUse">
<stop stop-color="white"/>
<stop offset="1" stop-color="white" stop-opacity="0"/>
</linearGradient>
<linearGradient id="paint6_linear_312_45" x1="363.286" y1="338.634" x2="250.839" y2="533.027" gradientUnits="userSpaceOnUse">
<stop stop-color="white"/>
<stop offset="1" stop-color="white" stop-opacity="0"/>
</linearGradient>
<linearGradient id="paint7_linear_312_45" x1="284.089" y1="270.099" x2="319.933" y2="371.511" gradientUnits="userSpaceOnUse">
<stop stop-color="white"/>
<stop offset="1" stop-color="white" stop-opacity="0"/>
</linearGradient>
<linearGradient id="paint8_linear_312_45" x1="178.99" y1="265.814" x2="73.3365" y2="348.358" gradientUnits="userSpaceOnUse">
<stop stop-color="white"/>
<stop offset="1" stop-color="white" stop-opacity="0"/>
</linearGradient>
<linearGradient id="paint9_linear_312_45" x1="161.984" y1="442.439" x2="125.971" y2="470.78" gradientUnits="userSpaceOnUse">
<stop stop-color="white"/>
<stop offset="1" stop-color="white" stop-opacity="0"/>
</linearGradient>
</defs>
</svg>
