<svg width="253" height="382" viewBox="0 0 253 382" fill="none" xmlns="http://www.w3.org/2000/svg">
<path opacity="0.4" d="M144.081 109.351C140.977 107.568 138.75 107.531 137.399 109.206C136.012 110.881 135.354 113.72 135.354 117.689V139.168C135.354 143.246 134.989 146.632 134.222 149.326C133.456 152.129 132.178 154.095 130.425 155.26C128.709 156.462 126.372 156.753 123.415 156.207C120.53 155.697 116.915 154.168 112.607 151.692L110.562 150.491V133.562L113.154 135.054C116.258 136.838 118.303 137.057 119.325 135.783C120.42 134.508 120.968 131.887 120.968 127.919V108.987C120.968 104.036 121.443 100.141 122.429 97.3009C123.378 94.4248 125.313 92.6044 128.198 91.8035C125.313 87.6896 123.378 83.612 122.429 79.6437C121.479 75.6754 121.005 71.2338 121.005 66.2825V47.3511C121.005 43.3828 120.457 40.1062 119.362 37.5942C118.339 35.1185 116.258 32.9705 113.191 31.1866L110.598 29.6939V12.7649L112.643 13.9663C116.952 16.442 120.567 19.0996 123.451 21.9029C126.409 24.7426 128.745 27.728 130.462 30.9318C132.251 34.1355 133.529 37.5577 134.259 41.2348C135.026 44.8026 135.391 48.6253 135.391 52.7029V74.1827C135.391 78.151 136.085 81.7917 137.436 85.0319C138.823 88.2721 141.05 90.8205 144.118 92.568L144.081 109.351Z" fill="url(#paint0_linear_306_5149)"/>
<path opacity="0.4" d="M65.8696 47.1326C68.9733 48.9165 71.2006 48.9529 72.5515 47.2782C73.939 45.6035 74.5963 42.7638 74.5963 38.7955V17.3156C74.5963 13.2381 74.9614 9.85229 75.7282 7.15821C76.495 4.3549 77.7364 2.38895 79.4525 1.18754C81.2417 0.0225266 83.5785 -0.268726 86.4631 0.240966C89.4206 0.787064 93.072 2.31614 97.3805 4.82819L99.4253 6.0296V22.9586L96.8328 21.466C93.7292 19.6821 91.6479 19.4272 90.5526 20.7014C89.5302 22.0121 89.019 24.6333 89.019 28.6381V47.5695C89.019 52.4843 88.5443 56.4163 87.5585 59.256C86.6091 62.1321 84.6739 63.9524 81.7894 64.7533C84.6739 68.8673 86.6091 72.9448 87.5585 76.9131C88.5078 80.8814 88.9825 85.323 88.9825 90.2743V109.206C88.9825 113.174 89.4937 116.414 90.516 118.926C91.6114 121.438 93.6927 123.623 96.7963 125.37L99.3887 126.863V143.792L97.344 142.591C93.0354 140.115 89.3841 137.421 86.4266 134.617C83.542 131.814 81.2052 128.829 79.416 125.589C77.6999 122.421 76.4585 118.999 75.7282 115.358C74.9614 111.791 74.5963 107.968 74.5963 103.89V82.4105C74.5963 78.4422 73.9025 74.8016 72.5515 71.5614C71.164 68.3212 68.9367 65.7727 65.8696 64.0252V47.1326Z" fill="url(#paint1_linear_306_5149)"/>
<path opacity="0.15" d="M154.633 4.68262L231.713 49.0622L231.676 233.316L154.597 188.973L154.633 4.68262Z" fill="url(#paint2_linear_306_5149)"/>
<path d="M140.138 28.8201L201.48 64.098V81.027L140.138 45.7491V28.8201Z" fill="#F7DF1E"/>
<path opacity="0.2" d="M164.675 107.203L222.804 140.661V191.885L164.675 158.427V107.203Z" fill="url(#paint3_linear_306_5149)"/>
<path opacity="0.15" d="M164.09 67.9207L223.095 101.888V107.677L164.09 73.7093V67.9207Z" fill="white"/>
<path opacity="0.15" d="M164.09 79.5708L215.099 108.914V114.703L164.09 85.3594V79.5708Z" fill="white"/>
<path opacity="0.15" d="M164.09 91.0752L207.395 115.977V121.766L164.09 96.8638V91.0752Z" fill="white"/>
<path opacity="0.2" d="M154.633 4.68262L231.713 49.0622V73.7458L154.597 29.4027L154.633 4.68262Z" fill="url(#paint4_linear_306_5149)"/>
<path opacity="0.2" d="M173.876 28.2741C173.876 32.0239 171.685 33.7715 168.983 32.206C166.281 30.6405 164.09 26.3809 164.09 22.6311C164.09 18.8812 166.281 17.1337 168.983 18.6992C171.685 20.2646 173.876 24.5606 173.876 28.2741Z" fill="white"/>
<path opacity="0.15" d="M15.7372 61.1128L253 197.637L252.964 382L15.7007 245.475L15.7372 61.1128Z" fill="url(#paint5_linear_306_5149)"/>
<path d="M0 106.548L61.3057 141.826V158.755L0 123.514V106.548Z" fill="#F2994A"/>
<path opacity="0.15" d="M31.7298 153.076L167.851 231.423V237.211L31.7298 158.864V153.076Z" fill="white"/>
<path opacity="0.15" d="M31.7298 164.726L149.156 232.296V238.085L31.7298 170.514V164.726Z" fill="white"/>
<path opacity="0.15" d="M31.7298 176.267L131.666 233.789V239.578L31.7298 182.055V176.267Z" fill="white"/>
<path opacity="0.2" d="M123.597 249.662L243.287 318.543V369.767L123.597 300.886V249.662Z" fill="url(#paint6_linear_306_5149)"/>
<path opacity="0.15" d="M132.616 264.989L150.654 275.365V292.294L132.616 281.918V264.989Z" fill="white"/>
<path opacity="0.15" d="M154.707 278.532L172.744 288.908V305.837L154.707 295.462V278.532Z" fill="white"/>
<path opacity="0.15" d="M176.906 291.093L194.944 301.469V318.398L176.906 308.022V291.093Z" fill="white"/>
<path opacity="0.15" d="M199.106 304.454L217.144 314.83V331.759L199.106 321.383V304.454Z" fill="white"/>
<path opacity="0.2" d="M9.4567 182.019L109.101 239.359V290.583L9.4567 233.206V182.019Z" fill="url(#paint7_linear_306_5149)"/>
<path opacity="0.15" d="M19.4978 200.914L98.6585 246.458V252.247L19.4978 206.702V200.914Z" fill="white"/>
<path opacity="0.15" d="M19.4978 212.564L82.8848 249.043V254.832L19.4978 218.316V212.564Z" fill="white"/>
<path opacity="0.2" d="M15.7371 61.1128L252.671 197.492V222.467L15.7371 86.1241V61.1128Z" fill="url(#paint8_linear_306_5149)"/>
<path opacity="0.2" d="M41.552 88.454C41.552 92.2039 39.3612 93.9514 36.6592 92.3859C33.9573 90.8204 31.7665 86.5609 31.7665 82.811C31.7665 79.0611 33.9573 77.3136 36.6592 78.8791C39.3612 80.4446 41.552 84.7405 41.552 88.454Z" fill="white"/>
<defs>
<linearGradient id="paint0_linear_306_5149" x1="165.099" y1="7.65545" x2="105.559" y2="111.174" gradientUnits="userSpaceOnUse">
<stop stop-color="white"/>
<stop offset="0.903" stop-color="white" stop-opacity="0"/>
</linearGradient>
<linearGradient id="paint1_linear_306_5149" x1="130.574" y1="0.647661" x2="71.0267" y2="104.154" gradientUnits="userSpaceOnUse">
<stop stop-color="white"/>
<stop offset="0.903" stop-color="white" stop-opacity="0"/>
</linearGradient>
<linearGradient id="paint2_linear_306_5149" x1="233.162" y1="49.8993" x2="159.781" y2="177.404" gradientUnits="userSpaceOnUse">
<stop stop-color="white"/>
<stop offset="1" stop-color="white" stop-opacity="0"/>
</linearGradient>
<linearGradient id="paint3_linear_306_5149" x1="204.87" y1="130.31" x2="184.475" y2="165.747" gradientUnits="userSpaceOnUse">
<stop stop-color="white"/>
<stop offset="1" stop-color="white" stop-opacity="0"/>
</linearGradient>
<linearGradient id="paint4_linear_306_5149" x1="181.061" y1="5.06543" x2="204.441" y2="71.4502" gradientUnits="userSpaceOnUse">
<stop stop-color="white"/>
<stop offset="1" stop-color="white" stop-opacity="0"/>
</linearGradient>
<linearGradient id="paint5_linear_306_5149" x1="174.381" y1="152.396" x2="135.513" y2="219.949" gradientUnits="userSpaceOnUse">
<stop stop-color="white"/>
<stop offset="1" stop-color="white" stop-opacity="0"/>
</linearGradient>
<linearGradient id="paint6_linear_306_5149" x1="194.577" y1="290.503" x2="174.182" y2="325.94" gradientUnits="userSpaceOnUse">
<stop stop-color="white"/>
<stop offset="1" stop-color="white" stop-opacity="0"/>
</linearGradient>
<linearGradient id="paint7_linear_306_5149" x1="70.3964" y1="217.073" x2="50.0015" y2="252.51" gradientUnits="userSpaceOnUse">
<stop stop-color="white"/>
<stop offset="1" stop-color="white" stop-opacity="0"/>
</linearGradient>
<linearGradient id="paint8_linear_306_5149" x1="74.5257" y1="40.9896" x2="164.102" y2="193.171" gradientUnits="userSpaceOnUse">
<stop stop-color="white"/>
<stop offset="1" stop-color="white" stop-opacity="0"/>
</linearGradient>
</defs>
</svg>
