<svg width="140" height="140" viewBox="0 0 140 140" fill="none" xmlns="http://www.w3.org/2000/svg">
<path d="M108.889 31.1111H31.1111V108.889H108.889V31.1111Z" fill="#F7DF1E"/>
<path d="M83.358 91.8753C84.9247 94.4333 86.963 96.3136 90.5679 96.3136C93.5963 96.3136 95.5308 94.8 95.5308 92.7087C95.5308 90.2025 93.5432 89.3148 90.2099 87.8568L88.3827 87.0729C83.1086 84.8259 79.6049 82.0111 79.6049 76.0605C79.6049 70.579 83.7815 66.4062 90.3086 66.4062C94.9555 66.4062 98.2963 68.0235 100.704 72.258L95.0123 75.9124C93.7592 73.6654 92.4074 72.7803 90.3086 72.7803C88.1679 72.7803 86.8111 74.1383 86.8111 75.9124C86.8111 78.105 88.1691 78.9926 91.3049 80.3506L93.1321 81.1333C99.342 83.7963 102.848 86.5111 102.848 92.6148C102.848 99.1951 97.679 102.8 90.737 102.8C83.9494 102.8 79.5642 99.5654 77.4185 95.3259L83.358 91.8753ZM57.5395 92.5087C58.6876 94.5457 59.7321 96.2679 62.2432 96.2679C64.6444 96.2679 66.1592 95.3284 66.1592 91.6753V66.8235H73.4679V91.7741C73.4679 99.342 69.0309 102.786 62.5543 102.786C56.7025 102.786 53.3136 99.758 51.5901 96.1105L57.5395 92.5087Z" fill="black"/>
</svg>
