<svg width="140" height="140" viewBox="0 0 140 140" fill="none" xmlns="http://www.w3.org/2000/svg">
<path d="M98.0838 74.3665C95.3704 74.3807 93.0121 75.0342 91.0374 76.0003C90.3129 74.5654 89.5884 73.2868 89.4605 72.3492C89.3185 71.2553 89.148 70.5876 89.3185 69.2806C89.489 67.9736 90.2561 66.1126 90.2419 65.9705C90.2277 65.8285 90.0714 65.1608 88.5087 65.1466C86.946 65.1323 85.5964 65.4449 85.4401 65.8569C85.2839 66.2689 84.9855 67.2065 84.7866 68.1725C84.5167 69.5932 81.6612 74.6648 80.0275 77.3214C79.5018 76.2844 79.0472 75.3752 78.9478 74.6506C78.8057 73.5567 78.6353 72.889 78.8057 71.5821C78.9762 70.2751 79.7434 68.414 79.7291 68.272C79.7149 68.1299 79.5587 67.4622 77.996 67.448C76.4333 67.4338 75.0837 67.7463 74.9274 68.1583C74.7711 68.5703 74.6006 69.5363 74.2739 70.474C73.9471 71.4116 70.154 79.8786 69.1596 82.0664C68.6481 83.1887 68.2077 84.0837 67.8952 84.6946C67.8952 84.6946 67.881 84.7372 67.8384 84.8082C67.5685 85.3339 67.4122 85.618 67.4122 85.618C67.4122 85.618 67.4122 85.618 67.4122 85.6322C67.1991 86.0158 66.9718 86.3709 66.8581 86.3709C66.7729 86.3709 66.6166 85.3481 66.8866 83.9558C67.4548 81.0151 68.8044 76.4407 68.7902 76.2844C68.7902 76.1991 69.0459 75.4036 67.9094 74.9916C66.8013 74.5796 66.4035 75.2615 66.3041 75.2615C66.2046 75.2615 66.1336 75.503 66.1336 75.503C66.1336 75.503 67.3696 70.3603 63.7753 70.3603C61.5307 70.3603 58.4337 72.818 56.8994 75.0342C55.9334 75.5599 53.8735 76.6822 51.6715 77.8897C50.8333 78.3585 49.9667 78.8273 49.157 79.2677C49.1001 79.2109 49.0433 79.1399 48.9865 79.083C44.6393 74.4375 36.5985 71.1559 36.9394 64.9193C37.0673 62.6462 37.8486 56.6795 52.3818 49.4343C64.3436 43.5386 73.8619 45.1723 75.5098 48.795C77.8681 53.9661 70.4097 63.5696 58.0502 64.9619C53.3336 65.4875 50.8617 63.6691 50.2366 62.9872C49.5831 62.2769 49.4837 62.2342 49.2422 62.3763C48.8444 62.5894 49.1001 63.2287 49.2422 63.5981C49.6116 64.5641 51.1316 66.2689 53.703 67.107C55.976 67.8458 61.5023 68.2578 68.1935 65.6722C75.6803 62.7741 81.5334 54.719 79.8144 47.971C78.0954 41.1235 66.7303 38.8647 55.976 42.6862C49.5831 44.9592 42.6504 48.5393 37.664 53.199C31.7399 58.7395 30.8023 63.5554 31.1858 65.5727C32.5639 72.7328 42.4373 77.3925 46.3867 80.8446C46.1878 80.9583 46.0031 81.0577 45.8469 81.143C43.8722 82.1232 36.3428 86.0584 34.4675 90.2209C32.3366 94.9374 34.8085 98.3185 36.4422 98.7731C41.5139 100.18 46.7277 97.6508 49.5263 93.4741C52.325 89.2975 51.984 83.8706 50.6912 81.3845C50.677 81.3561 50.6628 81.3277 50.6344 81.2992C51.1458 81.0009 51.6715 80.6884 52.1829 80.39C53.1916 79.7934 54.186 79.2393 55.0384 78.7847C54.5554 80.1059 54.2002 81.6828 54.0298 83.9558C53.8167 86.6266 54.9105 90.093 56.3454 91.4568C56.9847 92.0535 57.7376 92.0677 58.2206 92.0677C59.897 92.0677 60.6499 90.6755 61.4881 89.0275C62.511 87.0102 63.4344 84.6662 63.4344 84.6662C63.4344 84.6662 62.2837 91.0022 65.4091 91.0022C66.5456 91.0022 67.6963 89.5248 68.2078 88.7718C68.2078 88.786 68.2078 88.786 68.2078 88.786C68.2078 88.786 68.2362 88.7434 68.293 88.644C68.4066 88.4593 68.4777 88.3456 68.4777 88.3456C68.4777 88.3456 68.4777 88.3314 68.4777 88.3172C68.9323 87.5217 69.9551 85.7174 71.4752 82.7199C73.4357 78.8557 75.3252 74.0256 75.3252 74.0256C75.3252 74.0256 75.4956 75.2047 76.0781 77.1652C76.4191 78.3159 77.1294 79.5803 77.6976 80.802C77.243 81.4413 76.9589 81.7965 76.9589 81.7965C76.9589 81.7965 76.9589 81.7965 76.9731 81.8107C76.6037 82.2937 76.206 82.8193 75.7656 83.3308C74.2171 85.1776 72.3702 87.2943 72.1145 87.9052C71.8162 88.6297 71.8872 89.1554 72.4555 89.5816C72.8675 89.8941 73.6062 89.9367 74.3591 89.8941C75.7514 89.7947 76.7316 89.4537 77.2146 89.2406C77.9676 88.9707 78.8483 88.5587 79.6723 87.9478C81.1924 86.8255 82.1158 85.2202 82.0306 83.1035C81.988 81.9385 81.6044 80.7736 81.1356 79.6797C81.2776 79.4808 81.4055 79.2819 81.5476 79.083C83.9485 75.5741 85.8095 71.7241 85.8095 71.7241C85.8095 71.7241 85.98 72.9033 86.5624 74.8637C86.8466 75.8582 87.429 76.9379 87.9405 77.9891C85.6816 79.8218 84.2894 81.9527 83.7922 83.345C82.8972 85.9305 83.5933 87.0955 84.9145 87.3654C85.5112 87.4932 86.3635 87.2091 86.9886 86.9392C87.7842 86.6835 88.7218 86.2431 89.6168 85.5896C91.1369 84.4673 92.6002 82.9046 92.5149 80.7878C92.4723 79.8218 92.2166 78.8699 91.8614 77.9465C93.7793 77.151 96.2512 76.7106 99.405 77.0799C106.167 77.8755 107.503 82.0948 107.247 83.8706C106.991 85.6464 105.571 86.6124 105.102 86.9108C104.633 87.2091 104.477 87.3086 104.519 87.5217C104.576 87.8342 104.803 87.82 105.201 87.7632C105.755 87.6637 108.753 86.3283 108.881 83.0608C109.094 78.8842 105.116 74.3239 98.0838 74.3665ZM45.9179 91.954C43.6733 94.3976 40.5479 95.321 39.1983 94.5396C37.7492 93.7014 38.3175 90.093 41.0735 87.5074C42.7499 85.9305 44.9092 84.4673 46.3441 83.5723C46.6708 83.3734 47.1538 83.0892 47.7363 82.7341C47.8358 82.6773 47.8926 82.6488 47.8926 82.6488C48.0062 82.5778 48.1199 82.5068 48.2335 82.4358C49.2422 86.1294 48.2762 89.3827 45.9179 91.954ZM62.2553 80.8446C61.4739 82.7483 59.8402 87.6211 58.8457 87.3512C57.9933 87.1239 57.4677 83.4302 58.6752 79.7792C59.2861 77.9465 60.5789 75.7587 61.3318 74.9064C62.5536 73.5425 63.9032 73.0879 64.23 73.642C64.6419 74.3665 62.7383 79.6513 62.2553 80.8446ZM75.7371 87.2943C75.4104 87.4648 75.0979 87.5785 74.9558 87.4932C74.8563 87.4364 75.0979 87.2091 75.0979 87.2091C75.0979 87.2091 76.7884 85.3907 77.4561 84.5667C77.8397 84.0837 78.2943 83.5154 78.7773 82.8762C78.7773 82.933 78.7773 83.004 78.7773 83.0608C78.7773 85.2344 76.6748 86.6977 75.7371 87.2943ZM86.1362 84.9219C85.8947 84.7514 85.9373 84.1831 86.7471 82.4073C87.0597 81.7112 87.7984 80.5463 89.0628 79.424C89.2048 79.8786 89.3043 80.319 89.2901 80.731C89.2759 83.4728 87.3154 84.4957 86.1362 84.9219Z" fill="#F472B6"/>
</svg>
