<?xml version="1.0" encoding="UTF-8"?>
<svg xmlns="http://www.w3.org/2000/svg" xmlns:xlink="http://www.w3.org/1999/xlink" width="140px" height="140px" viewBox="0 0 140 140" version="1.1">
<g id="surface1">
<path style=" stroke:none;fill-rule:nonzero;fill:rgb(38.039216%,85.490196%,98.431373%);fill-opacity:1;" d="M 140 70.011719 C 140 61.875 128.386719 54.160156 110.578125 49.375 C 114.6875 33.449219 112.863281 20.777344 104.816406 16.71875 C 102.960938 15.769531 100.789062 15.316406 98.421875 15.316406 L 98.421875 20.902344 C 99.734375 20.902344 100.789062 21.128906 101.675781 21.554688 C 105.554688 23.507812 107.238281 30.945312 105.925781 40.511719 C 105.613281 42.867188 105.101562 45.34375 104.472656 47.875 C 98.878906 46.671875 92.773438 45.746094 86.351562 45.144531 C 82.5 40.511719 78.503906 36.304688 74.480469 32.621094 C 83.78125 25.035156 92.515625 20.875 98.449219 20.875 L 98.449219 15.292969 C 90.601562 15.292969 80.332031 20.199219 69.941406 28.714844 C 59.554688 20.25 49.28125 15.390625 41.433594 15.390625 L 41.433594 20.976562 C 47.34375 20.976562 56.101562 25.109375 65.40625 32.648438 C 61.410156 36.328125 57.414062 40.511719 53.621094 45.144531 C 47.171875 45.746094 41.0625 46.671875 35.472656 47.898438 C 34.816406 45.394531 34.328125 42.964844 33.988281 40.636719 C 32.644531 31.070312 34.300781 23.632812 38.152344 21.652344 C 39.007812 21.203125 40.121094 21.003906 41.433594 21.003906 L 41.433594 15.417969 C 39.039062 15.417969 36.867188 15.867188 34.984375 16.820312 C 26.96875 20.875 25.167969 33.523438 29.308594 49.402344 C 11.558594 54.210938 0 61.898438 0 70.011719 C 0 78.152344 11.613281 85.863281 29.421875 90.648438 C 25.3125 106.578125 27.136719 119.25 35.183594 123.304688 C 37.039062 124.257812 39.210938 124.707031 41.605469 124.707031 C 49.453125 124.707031 59.726562 119.800781 70.113281 111.285156 C 80.5 119.75 90.773438 124.609375 98.621094 124.609375 C 101.019531 124.609375 103.1875 124.15625 105.070312 123.207031 C 113.089844 119.148438 114.886719 106.5 110.75 90.625 C 128.441406 85.839844 140 78.125 140 70.011719 Z M 102.84375 53.308594 C 101.789062 56.539062 100.476562 59.871094 98.992188 63.199219 C 97.824219 61.195312 96.597656 59.195312 95.253906 57.191406 C 93.941406 55.1875 92.542969 53.234375 91.144531 51.328125 C 95.199219 51.855469 99.105469 52.507812 102.84375 53.308594 Z M 89.777344 79.980469 C 87.550781 83.359375 85.265625 86.566406 82.898438 89.546875 C 78.648438 89.871094 74.335938 90.046875 70 90.046875 C 65.691406 90.046875 61.382812 89.871094 57.160156 89.570312 C 54.789062 86.589844 52.480469 83.410156 50.253906 80.054688 C 48.082031 76.773438 46.113281 73.445312 44.316406 70.085938 C 46.085938 66.730469 48.082031 63.375 50.222656 60.09375 C 52.449219 56.714844 54.734375 53.507812 57.101562 50.527344 C 61.351562 50.203125 65.664062 50.027344 70 50.027344 C 74.308594 50.027344 78.617188 50.203125 82.839844 50.503906 C 85.210938 53.484375 87.519531 56.664062 89.746094 60.019531 C 91.917969 63.300781 93.886719 66.632812 95.683594 69.988281 C 93.886719 73.34375 91.917969 76.699219 89.777344 79.980469 Z M 98.992188 76.722656 C 100.535156 80.078125 101.847656 83.4375 102.929688 86.691406 C 99.191406 87.492188 95.253906 88.167969 91.175781 88.695312 C 92.574219 86.765625 93.96875 84.789062 95.285156 82.757812 C 96.597656 80.757812 97.824219 78.726562 98.992188 76.722656 Z M 70.058594 103.445312 C 67.402344 101.042969 64.75 98.363281 62.125 95.433594 C 64.691406 95.53125 67.316406 95.605469 69.972656 95.605469 C 72.652344 95.605469 75.308594 95.558594 77.90625 95.433594 C 75.335938 98.363281 72.683594 101.042969 70.058594 103.445312 Z M 48.824219 88.695312 C 44.773438 88.167969 40.863281 87.519531 37.125 86.714844 C 38.183594 83.484375 39.496094 80.15625 40.976562 76.824219 C 42.148438 78.828125 43.375 80.832031 44.714844 82.835938 C 46.058594 84.839844 47.425781 86.792969 48.824219 88.695312 Z M 69.914062 36.578125 C 72.566406 38.984375 75.222656 41.664062 77.847656 44.59375 C 75.277344 44.492188 72.652344 44.417969 70 44.417969 C 67.316406 44.417969 64.664062 44.46875 62.066406 44.59375 C 64.636719 41.664062 67.289062 38.984375 69.914062 36.578125 Z M 48.796875 51.328125 C 47.398438 53.257812 46 55.238281 44.6875 57.265625 C 43.375 59.269531 42.148438 61.273438 40.976562 63.277344 C 39.4375 59.921875 38.125 56.5625 37.039062 53.308594 C 40.777344 52.53125 44.714844 51.855469 48.796875 51.328125 Z M 22.972656 82.683594 C 12.871094 78.902344 6.335938 73.945312 6.335938 70.011719 C 6.335938 66.082031 12.871094 61.097656 22.972656 57.339844 C 25.425781 56.414062 28.109375 55.585938 30.875 54.8125 C 32.503906 59.71875 34.644531 64.828125 37.296875 70.0625 C 34.671875 75.273438 32.558594 80.355469 30.960938 85.238281 C 28.136719 84.460938 25.453125 83.609375 22.972656 82.683594 Z M 38.324219 118.472656 C 34.445312 116.519531 32.761719 109.082031 34.074219 99.515625 C 34.386719 97.160156 34.898438 94.679688 35.527344 92.152344 C 41.121094 93.351562 47.226562 94.28125 53.648438 94.878906 C 57.5 99.515625 61.496094 103.722656 65.519531 107.402344 C 56.21875 114.992188 47.484375 119.148438 41.550781 119.148438 C 40.265625 119.125 39.179688 118.898438 38.324219 118.472656 Z M 106.011719 99.390625 C 107.355469 108.957031 105.699219 116.394531 101.847656 118.371094 C 100.992188 118.824219 99.878906 119.023438 98.566406 119.023438 C 92.65625 119.023438 83.898438 114.890625 74.59375 107.351562 C 78.589844 103.671875 82.585938 99.488281 86.378906 94.855469 C 92.828125 94.253906 98.9375 93.328125 104.527344 92.101562 C 105.183594 94.628906 105.699219 97.058594 106.011719 99.390625 Z M 117 82.683594 C 114.546875 83.609375 111.863281 84.4375 109.09375 85.214844 C 107.46875 80.304688 105.328125 75.195312 102.675781 69.960938 C 105.300781 64.753906 107.410156 59.667969 109.007812 54.785156 C 111.835938 55.5625 114.515625 56.414062 117.027344 57.339844 C 127.128906 61.121094 133.664062 66.082031 133.664062 70.011719 C 133.636719 73.945312 127.101562 78.929688 117 82.683594 Z M 117 82.683594 "/>
<path style=" stroke:none;fill-rule:nonzero;fill:rgb(38.039216%,85.490196%,98.431373%);fill-opacity:1;" d="M 83.011719 70.011719 C 83.011719 76.332031 77.175781 81.457031 69.972656 81.457031 C 62.769531 81.457031 56.929688 76.332031 56.929688 70.011719 C 56.929688 63.691406 62.769531 58.566406 69.972656 58.566406 C 77.175781 58.566406 83.011719 63.691406 83.011719 70.011719 Z M 83.011719 70.011719 "/>
</g>
</svg>
