<svg width="140" height="140" viewBox="0 0 140 140" fill="none" xmlns="http://www.w3.org/2000/svg">
<path d="M104.29 31.1111L98.0424 101.103L69.958 108.889L41.951 101.114L35.7097 31.1111H104.29Z" fill="#264DE4"/>
<path d="M92.6935 96.6461L98.0327 36.8348H70V102.938L92.6935 96.6461Z" fill="#2965F1"/>
<path d="M50.0177 62.7979L50.7872 71.3834H70V62.7979H50.0177Z" fill="#EBEBEB"/>
<path d="M70 45.4204H69.9703H48.4715L49.252 54.0061H70V45.4204Z" fill="#EBEBEB"/>
<path d="M70 94.0279V85.0953L69.9623 85.1053L60.4005 82.5235L59.7893 75.6761H55.143H51.1707L52.3736 89.1566L69.9605 94.0389L70 94.0279Z" fill="#EBEBEB"/>
<path d="M80.5425 71.3833L79.5459 82.5181L69.9703 85.1026V94.0348L87.5712 89.1567L87.7003 87.7062L89.7179 65.1033L89.9273 62.7978L91.4773 45.4204H69.9703V54.0061H82.0683L81.287 62.7978H69.9703V71.3833H80.5425Z" fill="#1E2235"/>
</svg>
